# xmcd
#
# Track frame offsets:
#  150
#  12082
#  25017
#  38727
#  50677
#  65947
#  76540
#  89920
#  102445
#  115837
#
# Disc length: 1715 seconds
#
# Revision: 0
# Processed by: cddbd v1.4PL0 Copyright (c) Steve Scherf et al.
# Submitted via: AltoMP3_Maker 3.0
#
DISCID=7c06b10a
DTITLE=Tammy Wynette - Your Good Girl's Gonna Go Bad
DYEAR=1900
DGENRE=
TTITLE0=Apartment #9
TTITLE1=Don't Come Home a Drinkin' (With Lovin' on Your Mind)
TTITLE2=Don't Touch Me
TTITLE3=There Goes My Everything
TTITLE4=Send Me No Roses
TTITLE5=Your Good Girl's Gonna Go Bad
TTITLE6=Walk Through This World With Me
TTITLE7=I'm Not Mine to Give
TTITLE8=I Wound Easy (But I Heal Fast)
TTITLE9=Almost Persuaded
EXTD=
EXTT0=
EXTT1=
EXTT2=
EXTT3=
EXTT4=
EXTT5=
EXTT6=
EXTT7=
EXTT8=
EXTT9=
PLAYORDER=
